<?xml version="1.0" encoding="UTF-8"?>
<svg width="20px" height="20px" viewBox="0 0 20 20" version="1.1" xmlns="http://www.w3.org/2000/svg" xmlns:xlink="http://www.w3.org/1999/xlink">
    <!-- Generator: Sketch 53.1 (72631) - https://sketchapp.com -->
    <title>icon</title>
    <desc>Created with Sketch.</desc>
    <g id="icon" stroke="none" stroke-width="1" fill="none" fill-rule="evenodd">
        <path d="M15.664,14.648 C15.3119982,14.856001 14.8240031,14.96 14.2,14.96 C13.6719974,14.96 13.2520016,14.8120015 12.94,14.516 C12.6279984,14.2199985 12.472,13.7360034 12.472,13.064 C11.9119972,13.7360034 11.2600037,14.2199985 10.516,14.516 C9.77199628,14.8120015 8.96800432,14.96 8.104,14.96 C7.5439972,14.96 7.01200252,14.8960006 6.508,14.768 C6.00399748,14.6399994 5.56800184,14.4400014 5.2,14.168 C4.83199816,13.8959986 4.54000108,13.5400022 4.324,13.1 C4.10799892,12.6599978 4,12.1280031 4,11.504 C4,10.7999965 4.1199988,10.2240022 4.36,9.776 C4.6000012,9.32799776 4.91599804,8.9640014 5.308,8.684 C5.70000196,8.4039986 6.14799748,8.19200072 6.652,8.048 C7.15600252,7.90399928 7.67199736,7.78400048 8.2,7.688 C8.7600028,7.57599944 9.29199748,7.49200028 9.796,7.436 C10.3000025,7.37999972 10.7439981,7.30000052 11.128,7.196 C11.5120019,7.09199948 11.8159989,6.940001 12.04,6.74 C12.2640011,6.539999 12.376,6.24800192 12.376,5.864 C12.376,5.41599776 12.2920008,5.05600136 12.124,4.784 C11.9559992,4.51199864 11.7400013,4.30400072 11.476,4.16 C11.2119987,4.01599928 10.9160016,3.92000024 10.588,3.872 C10.2599984,3.82399976 9.9360016,3.8 9.616,3.8 C8.75199568,3.8 8.03200288,3.96399836 7.456,4.292 C6.87999712,4.62000164 6.56800024,5.23999544 6.52,6.152 L4.48,6.152 C4.51200016,5.38399616 4.67199856,4.73600264 4.96,4.208 C5.24800144,3.67999736 5.6319976,3.25200164 6.112,2.924 C6.5920024,2.59599836 7.13999692,2.36000072 7.756,2.216 C8.37200308,2.07199928 9.03199648,2 9.736,2 C10.2960028,2 10.8519972,2.0399996 11.404,2.12 C11.9560028,2.2000004 12.4559978,2.36399876 12.904,2.612 C13.3520022,2.86000124 13.7119986,3.20799776 13.984,3.656 C14.2560014,4.10400224 14.392,4.6879964 14.392,5.408 L14.392,11.792 C14.392,12.2720024 14.4199997,12.6239989 14.476,12.848 C14.5320003,13.0720011 14.7199984,13.184 15.04,13.184 C15.2160009,13.184 15.4239988,13.1440004 15.664,13.064 L15.664,14.648 Z M12.352,8.288 C12.0959987,8.48000096 11.7600021,8.61999956 11.344,8.708 C10.9279979,8.79600044 10.4920023,8.86799972 10.036,8.924 C9.57999772,8.98000028 9.12000232,9.04399964 8.656,9.116 C8.19199768,9.18800036 7.77600184,9.3039992 7.408,9.464 C7.03999816,9.6240008 6.74000116,9.85199852 6.508,10.148 C6.27599884,10.4440015 6.16,10.8479974 6.16,11.36 C6.16,11.6960017 6.22799932,11.9799988 6.364,12.212 C6.50000068,12.4440012 6.67599892,12.6319993 6.892,12.776 C7.10800108,12.9200007 7.35999856,13.0239997 7.648,13.088 C7.93600144,13.1520003 8.2399984,13.184 8.56,13.184 C9.23200336,13.184 9.8079976,13.0920009 10.288,12.908 C10.7680024,12.7239991 11.1599985,12.4920014 11.464,12.212 C11.7680015,11.9319986 11.9919993,11.6280016 12.136,11.3 C12.2800007,10.9719984 12.352,10.6640014 12.352,10.376 L12.352,8.288 Z" id="a" fill="#FFFFFF" fill-rule="nonzero"></path>
        <rect id="Rectangle" fill="#FFFFFF" x="4" y="17" width="12" height="1"></rect>
    </g>
</svg>